<svg width="25" height="24" viewBox="0 0 25 24" fill="none" xmlns="http://www.w3.org/2000/svg">
<path d="M21.875 4.5H3.125C2.7106 4.5 2.31317 4.65804 2.02015 4.93934C1.72712 5.22064 1.5625 5.60218 1.5625 6V18C1.5625 18.3978 1.72712 18.7794 2.02015 19.0607C2.31317 19.342 2.7106 19.5 3.125 19.5H21.875C22.2894 19.5 22.6868 19.342 22.9799 19.0607C23.2729 18.7794 23.4375 18.3978 23.4375 18V6C23.4375 5.60218 23.2729 5.22064 22.9799 4.93934C22.6868 4.65804 22.2894 4.5 21.875 4.5ZM20.1562 6L12.5 11.085L4.84375 6H20.1562ZM3.125 18V6.6825L12.0547 12.615C12.1855 12.7021 12.3408 12.7488 12.5 12.7488C12.6592 12.7488 12.8145 12.7021 12.9453 12.615L21.875 6.6825V18H3.125Z" fill="#E3E3E3"/>
</svg>
